ffmpeg started on 2025-06-07 at 16:30:06
Report written to "D:\Convert\FFMetrics\reports\ssim_report-6.txt"
Log level: 32
Command line:
ffmpeg -hide_banner -nostdin -i "G:\\\xc0\xed\xe8\xec\xe5\\\xce\xed\xe3\xee\xe8\xed\xe3\xe8\\!_36_\xce\xf1\xe5\xed\xfc_2024\\DreamCast\\\xd6\xe8\xea\xeb \xe8\xf1\xf2\xee\xf0\xe8\xe9 - \xcc\xe5\xe6\xf1\xe5\xe7\xee\xed\xfc\xe5 \xe8 \xf1\xe5\xe7\xee\xed \xec\xee\xed\xf1\xf2\xf0\xee\xe2\\DC_Monogatari_Series_Off_and_Monster_Season_03_Telegram_HEVC.mkv" -i "G:\\\xc0\xed\xe8\xec\xe5\\\xce\xed\xe3\xee\xe8\xed\xe3\xe8\\!_36_\xce\xf1\xe5\xed\xfc_2024\\DreamCast\\\xd6\xe8\xea\xeb \xe8\xf1\xf2\xee\xf0\xe8\xe9 - \xcc\xe5\xe6\xf1\xe5\xe7\xee\xed\xfc\xe5 \xe8 \xf1\xe5\xe7\xee\xed \xec\xee\xed\xf1\xf2\xf0\xee\xe2\\DC_Monogatari_Series_Off_and_Monster_Season_03_Telegram.mp4" -lavfi "[0:v]settb=AVTB,setpts=PTS-STARTPTS,format=pix_fmts=yuv420p10,fps=24000/1001,scale=1920:1080:flags=bicubic[main];[1:v]settb=AVTB,setpts=PTS-STARTPTS,format=pix_fmts=yuv420p,fps=24000/1001,scale=1920:1080:flags=bicubic[ref];[main][ref]ssim=eof_action=endall:stats_file='D\\:/Convert/FFMetrics/logs/ssim_logfile-6.txt'" -f null -
Input #0, matroska,webm, from 'G:\Аниме\Онгоинги\!_36_Осень_2024\DreamCast\Цикл историй - Межсезонье и сезон монстров\DC_Monogatari_Series_Off_and_Monster_Season_03_Telegram_HEVC.mkv':
  Metadata:
    COMPATIBLE_BRANDS: isomiso2avc1mp41
    MAJOR_BRAND     : isom
    MINOR_VERSION   : 512
    ENCODER         : Lavf61.7.100
  Duration: 00:23:43.45, start: -0.021000, bitrate: 2022 kb/s
  Stream #0:0: Video: hevc (Main 10), yuv420p10le(tv, bt709, progressive), 1920x1080 [SAR 1:1 DAR 16:9], 23.98 fps, 23.98 tbr, 1k tbn (default)
      Metadata:
        HANDLER_NAME    : VideoHandler
        VENDOR_ID       : [0][0][0][0]
        ENCODER         : Lavc61.19.100 libx265
        BPS             : 1828096
        DURATION        : 00:23:41.503708333
        NUMBER_OF_FRAMES: 34082
        NUMBER_OF_BYTES : 324830584
        _STATISTICS_WRITING_APP: mkvpropedit v66.0.0 ('Josie') 64-bit
        _STATISTICS_WRITING_DATE_UTC: 2025-06-05 10:21:12
        _STATISTICS_TAGS: BPS DURATION NUMBER_OF_FRAMES NUMBER_OF_BYTES
  Stream #0:1: Audio: aac (LC), 48000 Hz, stereo, fltp (default)
      Metadata:
        HANDLER_NAME    : SoundHandler
        VENDOR_ID       : [0][0][0][0]
        ENCODER         : Lavc61.19.100 aac
        BPS             : 193258
        DURATION        : 00:23:43.445000000
        NUMBER_OF_FRAMES: 66725
        NUMBER_OF_BYTES : 34386622
        _STATISTICS_WRITING_APP: mkvpropedit v66.0.0 ('Josie') 64-bit
        _STATISTICS_WRITING_DATE_UTC: 2025-06-05 10:21:12
        _STATISTICS_TAGS: BPS DURATION NUMBER_OF_FRAMES NUMBER_OF_BYTES
Input #1, mov,mp4,m4a,3gp,3g2,mj2, from 'G:\Аниме\Онгоинги\!_36_Осень_2024\DreamCast\Цикл историй - Межсезонье и сезон монстров\DC_Monogatari_Series_Off_and_Monster_Season_03_Telegram.mp4':
  Metadata:
    major_brand     : isom
    minor_version   : 512
    compatible_brands: isomiso2avc1mp41
    encoder         : Lavf61.1.100
  Duration: 00:23:43.41, start: 0.000000, bitrate: 3529 kb/s
  Stream #1:0[0x1](und): Video: h264 (High) (avc1 / 0x31637661), yuv420p(tv, bt709, progressive), 1920x1080 [SAR 1:1 DAR 16:9], 3386 kb/s, 23.98 fps, 23.98 tbr, 24k tbn (default)
      Metadata:
        handler_name    : VideoHandler
        vendor_id       : [0][0][0][0]
        encoder         : Lavc61.3.100 h264_qsv
  Stream #1:1[0x2](und): Audio: aac (HE-AACv2) (mp4a / 0x6134706D), 48000 Hz, stereo, fltp, 144 kb/s (default)
      Metadata:
        handler_name    : SoundHandler
        vendor_id       : [0][0][0][0]
Stream mapping:
  Stream #0:0 (hevc) -> settb:default
  Stream #1:0 (h264) -> settb:default
  ssim:default -> Stream #0:0 (wrapped_avframe)
  Stream #0:1 -> #0:1 (aac (native) -> pcm_s16le (native))
Output #0, null, to 'pipe:':
  Metadata:
    COMPATIBLE_BRANDS: isomiso2avc1mp41
    MAJOR_BRAND     : isom
    MINOR_VERSION   : 512
    encoder         : Lavf61.7.100
  Stream #0:0: Video: wrapped_avframe, yuv420p10le(tv, bt709, progressive), 1920x1080 [SAR 1:1 DAR 16:9], q=2-31, 200 kb/s, 23.98 fps, 23.98 tbn
      Metadata:
        encoder         : Lavc61.19.100 wrapped_avframe
  Stream #0:1: Audio: pcm_s16le, 48000 Hz, stereo, s16, 1536 kb/s (default)
      Metadata:
        HANDLER_NAME    : SoundHandler
        VENDOR_ID       : [0][0][0][0]
        _STATISTICS_TAGS: BPS DURATION NUMBER_OF_FRAMES NUMBER_OF_BYTES
        BPS             : 193258
        DURATION        : 00:23:43.445000000
        NUMBER_OF_FRAMES: 66725
        NUMBER_OF_BYTES : 34386622
        _STATISTICS_WRITING_APP: mkvpropedit v66.0.0 ('Josie') 64-bit
        _STATISTICS_WRITING_DATE_UTC: 2025-06-05 10:21:12
        encoder         : Lavc61.19.100 pcm_s16le
frame=  162 fps=0.0 q=-0.0 size=N/A time=00:00:06.75 bitrate=N/A speed=13.2x    frame=  430 fps=420 q=-0.0 size=N/A time=00:00:17.93 bitrate=N/A speed=17.5x    frame=  701 fps=457 q=-0.0 size=N/A time=00:00:29.23 bitrate=N/A speed=19.1x    frame=  953 fps=462 q=-0.0 size=N/A time=00:00:39.74 bitrate=N/A speed=19.3x    frame= 1189 fps=463 q=-0.0 size=N/A time=00:00:49.59 bitrate=N/A speed=19.3x    frame= 1304 fps=422 q=-0.0 size=N/A time=00:00:54.38 bitrate=N/A speed=17.6x    frame= 1461 fps=405 q=-0.0 size=N/A time=00:01:00.93 bitrate=N/A speed=16.9x    frame= 1693 fps=411 q=-0.0 size=N/A time=00:01:10.61 bitrate=N/A speed=17.1x    frame= 1884 fps=407 q=-0.0 size=N/A time=00:01:18.57 bitrate=N/A speed=  17x    frame= 2101 fps=408 q=-0.0 size=N/A time=00:01:27.62 bitrate=N/A speed=  17x    frame= 2304 fps=407 q=-0.0 size=N/A time=00:01:36.09 bitrate=N/A speed=  17x    frame= 2525 fps=408 q=-0.0 size=N/A time=00:01:45.31 bitrate=N/A speed=  17x    frame= 2752 fps=410 q=-0.0 size=N/A time=00:01:54.78 bitrate=N/A speed=17.1x    frame= 2954 fps=408 q=-0.0 size=N/A time=00:02:03.20 bitrate=N/A speed=  17x    frame= 3184 fps=411 q=-0.0 size=N/A time=00:02:12.79 bitrate=N/A speed=17.1x    frame= 3378 fps=409 q=-0.0 size=N/A time=00:02:20.89 bitrate=N/A speed=17.1x    frame= 3635 fps=414 q=-0.0 size=N/A time=00:02:31.60 bitrate=N/A speed=17.3x    frame= 3843 fps=414 q=-0.0 size=N/A time=00:02:40.28 bitrate=N/A speed=17.2x    frame= 4064 fps=415 q=-0.0 size=N/A time=00:02:49.50 bitrate=N/A speed=17.3x    frame= 4277 fps=414 q=-0.0 size=N/A time=00:02:58.38 bitrate=N/A speed=17.3x    frame= 4441 fps=410 q=-0.0 size=N/A time=00:03:05.22 bitrate=N/A speed=17.1x    frame= 4695 fps=413 q=-0.0 size=N/A time=00:03:15.82 bitrate=N/A speed=17.2x    frame= 4956 fps=417 q=-0.0 size=N/A time=00:03:26.70 bitrate=N/A speed=17.4x    frame= 5219 fps=421 q=-0.0 size=N/A time=00:03:37.67 bitrate=N/A speed=17.6x    frame= 5513 fps=427 q=-0.0 size=N/A time=00:03:49.93 bitrate=N/A speed=17.8x    frame= 5815 fps=433 q=-0.0 size=N/A time=00:04:02.53 bitrate=N/A speed=18.1x    frame= 6090 fps=437 q=-0.0 size=N/A time=00:04:14.00 bitrate=N/A speed=18.2x    frame= 6335 fps=438 q=-0.0 size=N/A time=00:04:24.22 bitrate=N/A speed=18.3x    frame= 6540 fps=437 q=-0.0 size=N/A time=00:04:32.77 bitrate=N/A speed=18.2x    frame= 6765 fps=437 q=-0.0 size=N/A time=00:04:42.15 bitrate=N/A speed=18.2x    frame= 6956 fps=434 q=-0.0 size=N/A time=00:04:50.12 bitrate=N/A speed=18.1x    frame= 7196 fps=435 q=-0.0 size=N/A time=00:05:00.13 bitrate=N/A speed=18.2x    frame= 7416 fps=435 q=-0.0 size=N/A time=00:05:09.30 bitrate=N/A speed=18.2x    frame= 7574 fps=431 q=-0.0 size=N/A time=00:05:15.89 bitrate=N/A speed=  18x    frame= 7807 fps=432 q=-0.0 size=N/A time=00:05:25.61 bitrate=N/A speed=  18x    frame= 8041 fps=433 q=-0.0 size=N/A time=00:05:35.37 bitrate=N/A speed=  18x    frame= 8314 fps=435 q=-0.0 size=N/A time=00:05:46.76 bitrate=N/A speed=18.2x    frame= 8602 fps=438 q=-0.0 size=N/A time=00:05:58.77 bitrate=N/A speed=18.3x    frame= 8833 fps=439 q=-0.0 size=N/A time=00:06:08.40 bitrate=N/A speed=18.3x    frame= 9017 fps=437 q=-0.0 size=N/A time=00:06:16.08 bitrate=N/A speed=18.2x    frame= 9277 fps=438 q=-0.0 size=N/A time=00:06:26.92 bitrate=N/A speed=18.3x    frame= 9552 fps=440 q=-0.0 size=N/A time=00:06:38.39 bitrate=N/A speed=18.4x    frame= 9742 fps=439 q=-0.0 size=N/A time=00:06:46.32 bitrate=N/A speed=18.3x    frame=10019 fps=441 q=-0.0 size=N/A time=00:06:57.87 bitrate=N/A speed=18.4x    frame=10257 fps=442 q=-0.0 size=N/A time=00:07:07.80 bitrate=N/A speed=18.4x    frame=10511 fps=443 q=-0.0 size=N/A time=00:07:18.39 bitrate=N/A speed=18.5x    frame=10745 fps=443 q=-0.0 size=N/A time=00:07:28.15 bitrate=N/A speed=18.5x    frame=10998 fps=444 q=-0.0 size=N/A time=00:07:38.70 bitrate=N/A speed=18.5x    frame=11217 fps=444 q=-0.0 size=N/A time=00:07:47.84 bitrate=N/A speed=18.5x    frame=11466 fps=444 q=-0.0 size=N/A time=00:07:58.22 bitrate=N/A speed=18.5x    frame=11659 fps=443 q=-0.0 size=N/A time=00:08:06.27 bitrate=N/A speed=18.5x    frame=11869 fps=442 q=-0.0 size=N/A time=00:08:15.03 bitrate=N/A speed=18.4x    frame=12147 fps=444 q=-0.0 size=N/A time=00:08:26.63 bitrate=N/A speed=18.5x    frame=12407 fps=445 q=-0.0 size=N/A time=00:08:37.47 bitrate=N/A speed=18.6x    frame=12615 fps=445 q=-0.0 size=N/A time=00:08:46.15 bitrate=N/A speed=18.5x    frame=12832 fps=444 q=-0.0 size=N/A time=00:08:55.20 bitrate=N/A speed=18.5x    frame=13060 fps=444 q=-0.0 size=N/A time=00:09:04.71 bitrate=N/A speed=18.5x    frame=13274 fps=443 q=-0.0 size=N/A time=00:09:13.63 bitrate=N/A speed=18.5x    frame=13506 fps=444 q=-0.0 size=N/A time=00:09:23.31 bitrate=N/A speed=18.5x    frame=13755 fps=444 q=-0.0 size=N/A time=00:09:33.69 bitrate=N/A speed=18.5x    frame=13961 fps=444 q=-0.0 size=N/A time=00:09:42.29 bitrate=N/A speed=18.5x    frame=14194 fps=444 q=-0.0 size=N/A time=00:09:52.00 bitrate=N/A speed=18.5x    frame=14470 fps=445 q=-0.0 size=N/A time=00:10:03.51 bitrate=N/A speed=18.6x    frame=14742 fps=446 q=-0.0 size=N/A time=00:10:14.86 bitrate=N/A speed=18.6x    frame=15020 fps=447 q=-0.0 size=N/A time=00:10:26.45 bitrate=N/A speed=18.7x    frame=15293 fps=449 q=-0.0 size=N/A time=00:10:37.84 bitrate=N/A speed=18.7x    frame=15556 fps=450 q=-0.0 size=N/A time=00:10:48.81 bitrate=N/A speed=18.8x    frame=15848 fps=451 q=-0.0 size=N/A time=00:11:00.99 bitrate=N/A speed=18.8x    frame=16130 fps=453 q=-0.0 size=N/A time=00:11:12.75 bitrate=N/A speed=18.9x    frame=16399 fps=454 q=-0.0 size=N/A time=00:11:23.97 bitrate=N/A speed=18.9x    frame=16617 fps=453 q=-0.0 size=N/A time=00:11:33.06 bitrate=N/A speed=18.9x    frame=16855 fps=453 q=-0.0 size=N/A time=00:11:42.99 bitrate=N/A speed=18.9x    frame=17125 fps=454 q=-0.0 size=N/A time=00:11:54.25 bitrate=N/A speed=18.9x    frame=17346 fps=454 q=-0.0 size=N/A time=00:12:03.47 bitrate=N/A speed=18.9x    frame=17584 fps=454 q=-0.0 size=N/A time=00:12:13.39 bitrate=N/A speed=18.9x    frame=17785 fps=453 q=-0.0 size=N/A time=00:12:21.78 bitrate=N/A speed=18.9x    frame=18065 fps=454 q=-0.0 size=N/A time=00:12:33.41 bitrate=N/A speed=18.9x    frame=18323 fps=455 q=-0.0 size=N/A time=00:12:44.22 bitrate=N/A speed=  19x    frame=18604 fps=456 q=-0.0 size=N/A time=00:12:55.94 bitrate=N/A speed=  19x    frame=18821 fps=456 q=-0.0 size=N/A time=00:13:04.99 bitrate=N/A speed=  19x    frame=19041 fps=455 q=-0.0 size=N/A time=00:13:14.16 bitrate=N/A speed=  19x    frame=19236 fps=454 q=-0.0 size=N/A time=00:13:22.30 bitrate=N/A speed=18.9x    frame=19454 fps=454 q=-0.0 size=N/A time=00:13:31.39 bitrate=N/A speed=18.9x    frame=19569 fps=451 q=-0.0 size=N/A time=00:13:36.19 bitrate=N/A speed=18.8x    frame=19768 fps=450 q=-0.0 size=N/A time=00:13:44.49 bitrate=N/A speed=18.8x    frame=19973 fps=450 q=-0.0 size=N/A time=00:13:53.04 bitrate=N/A speed=18.8x    frame=20238 fps=451 q=-0.0 size=N/A time=00:14:04.09 bitrate=N/A speed=18.8x    frame=20514 fps=451 q=-0.0 size=N/A time=00:14:15.60 bitrate=N/A speed=18.8x    frame=20780 fps=452 q=-0.0 size=N/A time=00:14:26.69 bitrate=N/A speed=18.9x    frame=21041 fps=453 q=-0.0 size=N/A time=00:14:37.58 bitrate=N/A speed=18.9x    frame=21332 fps=454 q=-0.0 size=N/A time=00:14:49.72 bitrate=N/A speed=18.9x    frame=21592 fps=455 q=-0.0 size=N/A time=00:15:00.56 bitrate=N/A speed=  19x    frame=21849 fps=455 q=-0.0 size=N/A time=00:15:11.28 bitrate=N/A speed=  19x    frame=22089 fps=455 q=-0.0 size=N/A time=00:15:21.29 bitrate=N/A speed=  19x    frame=22350 fps=456 q=-0.0 size=N/A time=00:15:32.18 bitrate=N/A speed=  19x    frame=22629 fps=457 q=-0.0 size=N/A time=00:15:43.81 bitrate=N/A speed=  19x    frame=22912 fps=457 q=-0.0 size=N/A time=00:15:55.62 bitrate=N/A speed=19.1x    frame=23174 fps=458 q=-0.0 size=N/A time=00:16:06.54 bitrate=N/A speed=19.1x    frame=23458 fps=459 q=-0.0 size=N/A time=00:16:18.39 bitrate=N/A speed=19.1x    frame=23758 fps=460 q=-0.0 size=N/A time=00:16:30.90 bitrate=N/A speed=19.2x    frame=24044 fps=461 q=-0.0 size=N/A time=00:16:42.83 bitrate=N/A speed=19.2x    frame=24272 fps=461 q=-0.0 size=N/A time=00:16:52.34 bitrate=N/A speed=19.2x    frame=24506 fps=461 q=-0.0 size=N/A time=00:17:02.10 bitrate=N/A speed=19.2x    frame=24727 fps=460 q=-0.0 size=N/A time=00:17:11.32 bitrate=N/A speed=19.2x    frame=24941 fps=460 q=-0.0 size=N/A time=00:17:20.24 bitrate=N/A speed=19.2x    frame=25233 fps=461 q=-0.0 size=N/A time=00:17:32.42 bitrate=N/A speed=19.2x    frame=25509 fps=462 q=-0.0 size=N/A time=00:17:43.93 bitrate=N/A speed=19.3x    frame=25727 fps=461 q=-0.0 size=N/A time=00:17:53.03 bitrate=N/A speed=19.2x    frame=25966 fps=461 q=-0.0 size=N/A time=00:18:02.99 bitrate=N/A speed=19.2x    frame=26209 fps=462 q=-0.0 size=N/A time=00:18:13.13 bitrate=N/A speed=19.3x    frame=26501 fps=462 q=-0.0 size=N/A time=00:18:25.31 bitrate=N/A speed=19.3x    frame=26754 fps=463 q=-0.0 size=N/A time=00:18:35.86 bitrate=N/A speed=19.3x    frame=27003 fps=463 q=-0.0 size=N/A time=00:18:46.25 bitrate=N/A speed=19.3x    frame=27249 fps=463 q=-0.0 size=N/A time=00:18:56.51 bitrate=N/A speed=19.3x    frame=27523 fps=464 q=-0.0 size=N/A time=00:19:07.93 bitrate=N/A speed=19.3x    frame=27811 fps=464 q=-0.0 size=N/A time=00:19:19.95 bitrate=N/A speed=19.4x    frame=28044 fps=464 q=-0.0 size=N/A time=00:19:29.66 bitrate=N/A speed=19.4x    frame=28229 fps=463 q=-0.0 size=N/A time=00:19:37.38 bitrate=N/A speed=19.3x    frame=28452 fps=463 q=-0.0 size=N/A time=00:19:46.68 bitrate=N/A speed=19.3x    frame=28654 fps=463 q=-0.0 size=N/A time=00:19:55.11 bitrate=N/A speed=19.3x    frame=28912 fps=463 q=-0.0 size=N/A time=00:20:05.87 bitrate=N/A speed=19.3x    frame=29205 fps=464 q=-0.0 size=N/A time=00:20:18.09 bitrate=N/A speed=19.3x    frame=29437 fps=464 q=-0.0 size=N/A time=00:20:27.76 bitrate=N/A speed=19.3x    frame=29720 fps=464 q=-0.0 size=N/A time=00:20:39.57 bitrate=N/A speed=19.4x    frame=29907 fps=464 q=-0.0 size=N/A time=00:20:47.37 bitrate=N/A speed=19.3x    frame=30180 fps=464 q=-0.0 size=N/A time=00:20:58.75 bitrate=N/A speed=19.4x    frame=30404 fps=464 q=-0.0 size=N/A time=00:21:08.10 bitrate=N/A speed=19.3x    frame=30604 fps=463 q=-0.0 size=N/A time=00:21:16.44 bitrate=N/A speed=19.3x    frame=30816 fps=463 q=-0.0 size=N/A time=00:21:25.28 bitrate=N/A speed=19.3x    frame=30964 fps=461 q=-0.0 size=N/A time=00:21:31.45 bitrate=N/A speed=19.2x    frame=31109 fps=460 q=-0.0 size=N/A time=00:21:37.50 bitrate=N/A speed=19.2x    frame=31247 fps=459 q=-0.0 size=N/A time=00:21:43.26 bitrate=N/A speed=19.1x    frame=31453 fps=458 q=-0.0 size=N/A time=00:21:51.85 bitrate=N/A speed=19.1x    frame=31623 fps=457 q=-0.0 size=N/A time=00:21:58.94 bitrate=N/A speed=19.1x    frame=31772 fps=456 q=-0.0 size=N/A time=00:22:05.15 bitrate=N/A speed=  19x    frame=32007 fps=456 q=-0.0 size=N/A time=00:22:14.95 bitrate=N/A speed=  19x    frame=32161 fps=455 q=-0.0 size=N/A time=00:22:21.38 bitrate=N/A speed=  19x    frame=32298 fps=453 q=-0.0 size=N/A time=00:22:27.09 bitrate=N/A speed=18.9x    frame=32410 fps=452 q=-0.0 size=N/A time=00:22:31.76 bitrate=N/A speed=18.8x    frame=32550 fps=450 q=-0.0 size=N/A time=00:22:37.60 bitrate=N/A speed=18.8x    frame=32687 fps=449 q=-0.0 size=N/A time=00:22:43.32 bitrate=N/A speed=18.7x    frame=32822 fps=448 q=-0.0 size=N/A time=00:22:48.95 bitrate=N/A speed=18.7x    frame=32962 fps=447 q=-0.0 size=N/A time=00:22:54.79 bitrate=N/A speed=18.6x    frame=33089 fps=445 q=-0.0 size=N/A time=00:23:00.08 bitrate=N/A speed=18.6x    frame=33241 fps=444 q=-0.0 size=N/A time=00:23:06.42 bitrate=N/A speed=18.5x    frame=33397 fps=443 q=-0.0 size=N/A time=00:23:12.93 bitrate=N/A speed=18.5x    frame=33542 fps=442 q=-0.0 size=N/A time=00:23:18.98 bitrate=N/A speed=18.4x    frame=33683 fps=441 q=-0.0 size=N/A time=00:23:24.86 bitrate=N/A speed=18.4x    frame=33821 fps=440 q=-0.0 size=N/A time=00:23:30.61 bitrate=N/A speed=18.3x    frame=33960 fps=439 q=-0.0 size=N/A time=00:23:36.41 bitrate=N/A speed=18.3x    [Parsed_ssim_10 @ 0000021a843f3900] SSIM Y:0.993892 (22.141063) U:0.994340 (22.472031) V:0.993552 (21.906023) All:0.993910 (22.153941)
[out#0/null @ 0000021af76b2280] video:14645KiB audio:266900KiB subtitle:0KiB other streams:0KiB global headers:0KiB muxing overhead: unknown
frame=34082 fps=438 q=-0.0 Lsize=N/A time=00:23:41.50 bitrate=N/A speed=18.3x    
